<svg width="148" height="54" viewBox="0 0 148 54" fill="none" xmlns="http://www.w3.org/2000/svg">
<path d="M52.1703 4H44.7025C40.5538 4 37.2348 7.34752 37.2348 11.5319V23.9805H44.7025C48.8513 23.9805 52.1703 20.633 52.1703 16.4486V4Z" fill="#FAFAFA"/>
<path d="M37.3386 29.0018H44.8063C48.955 29.0018 52.274 32.3493 52.274 36.5337V48.9823H44.8063C40.6575 48.9823 37.3386 45.6348 37.3386 41.4504V29.0018Z" fill="#FAFAFA"/>
<path d="M0 48.9823H7.46771C11.6164 48.9823 14.9354 45.6348 14.9354 41.4504V29.0018H7.46771C3.31898 29.0018 0 32.3493 0 36.5337V48.9823Z" fill="#FAFAFA"/>
<path d="M14.8317 23.9805H7.46771C3.31898 23.9805 0 20.633 0 16.4486V4H7.46771C11.6164 4 14.9354 7.34752 14.9354 11.5319V23.9805H14.8317Z" fill="#FAFAFA"/>
<path d="M32.0489 4H20.1213V23.9805H32.0489V4Z" fill="#FAFAFA"/>
<path d="M32.0489 29.0018H20.1213V48.9823H32.0489V29.0018Z" fill="#FAFAFA"/>
<rect x="56" y="4" width="2" height="45" fill="#FAFAFA"/>
<path d="M62.885 13C62.599 13 62.378 12.9263 62.222 12.779C62.0747 12.623 62.001 12.402 62.001 12.116V4.719C62.001 4.433 62.0747 4.21633 62.222 4.069C62.378 3.913 62.599 3.835 62.885 3.835H66.005C66.6463 3.835 67.1923 3.93033 67.643 4.121C68.0937 4.31167 68.436 4.58467 68.67 4.94C68.9127 5.29533 69.034 5.72 69.034 6.214C69.034 6.76867 68.8737 7.23667 68.553 7.618C68.2323 7.99933 67.7947 8.255 67.24 8.385V8.19C67.8813 8.28533 68.3797 8.528 68.735 8.918C69.0903 9.308 69.268 9.815 69.268 10.439C69.268 11.2537 68.9907 11.8863 68.436 12.337C67.89 12.779 67.1273 13 66.148 13H62.885ZM63.6 11.739H65.94C66.5293 11.739 66.9627 11.6263 67.24 11.401C67.5173 11.167 67.656 10.8203 67.656 10.361C67.656 9.893 67.5173 9.54633 67.24 9.321C66.9627 9.09567 66.5293 8.983 65.94 8.983H63.6V11.739ZM63.6 7.722H65.719C66.291 7.722 66.7157 7.61367 66.993 7.397C67.279 7.17167 67.422 6.84233 67.422 6.409C67.422 5.97567 67.279 5.65067 66.993 5.434C66.7157 5.20867 66.291 5.096 65.719 5.096H63.6V7.722ZM71.8352 13C71.5492 13 71.3282 12.9263 71.1722 12.779C71.0249 12.623 70.9512 12.402 70.9512 12.116V4.719C70.9512 4.433 71.0249 4.21633 71.1722 4.069C71.3282 3.913 71.5492 3.835 71.8352 3.835H76.4762C76.6929 3.835 76.8575 3.89133 76.9702 4.004C77.0915 4.11667 77.1522 4.277 77.1522 4.485C77.1522 4.70167 77.0915 4.87067 76.9702 4.992C76.8575 5.10467 76.6929 5.161 76.4762 5.161H72.5502V7.683H76.1902C76.4155 7.683 76.5845 7.73933 76.6972 7.852C76.8099 7.96467 76.8662 8.12933 76.8662 8.346C76.8662 8.56267 76.8099 8.72733 76.6972 8.84C76.5845 8.95267 76.4155 9.009 76.1902 9.009H72.5502V11.674H76.4762C76.6929 11.674 76.8575 11.7303 76.9702 11.843C77.0915 11.9557 77.1522 12.1203 77.1522 12.337C77.1522 12.5537 77.0915 12.7183 76.9702 12.831C76.8575 12.9437 76.6929 13 76.4762 13H71.8352ZM82.9593 13.13C82.006 13.13 81.187 12.9393 80.5023 12.558C79.8263 12.168 79.3063 11.622 78.9423 10.92C78.5783 10.2093 78.3963 9.373 78.3963 8.411C78.3963 7.69167 78.5003 7.046 78.7083 6.474C78.9163 5.89333 79.2153 5.39933 79.6053 4.992C79.9953 4.576 80.472 4.25967 81.0353 4.043C81.6073 3.81767 82.2487 3.705 82.9593 3.705C83.436 3.705 83.904 3.76567 84.3633 3.887C84.8227 4.00833 85.2257 4.18167 85.5723 4.407C85.7543 4.51967 85.8757 4.65833 85.9363 4.823C85.997 4.979 86.01 5.135 85.9753 5.291C85.9407 5.43833 85.867 5.564 85.7543 5.668C85.6503 5.772 85.516 5.83267 85.3513 5.85C85.1953 5.85867 85.022 5.80233 84.8313 5.681C84.5627 5.50767 84.2723 5.382 83.9603 5.304C83.6483 5.226 83.332 5.187 83.0113 5.187C82.396 5.187 81.876 5.31267 81.4513 5.564C81.0267 5.81533 80.706 6.17933 80.4893 6.656C80.2727 7.13267 80.1643 7.71767 80.1643 8.411C80.1643 9.09567 80.2727 9.68067 80.4893 10.166C80.706 10.6513 81.0267 11.0197 81.4513 11.271C81.876 11.5223 82.396 11.648 83.0113 11.648C83.3407 11.648 83.6657 11.609 83.9863 11.531C84.307 11.4443 84.6103 11.3143 84.8963 11.141C85.087 11.0283 85.256 10.9807 85.4033 10.998C85.5593 11.0067 85.6893 11.0587 85.7933 11.154C85.8973 11.2493 85.9667 11.3707 86.0013 11.518C86.036 11.6567 86.0273 11.804 85.9753 11.96C85.9233 12.1073 85.8193 12.2373 85.6633 12.35C85.3167 12.6013 84.9007 12.7963 84.4153 12.935C83.9387 13.065 83.4533 13.13 82.9593 13.13ZM87.4318 13.104C87.2238 13.104 87.0548 13.0563 86.9248 12.961C86.8035 12.8657 86.7298 12.74 86.7038 12.584C86.6778 12.4193 86.7082 12.2373 86.7948 12.038L90.2268 4.433C90.3395 4.18167 90.4738 4.004 90.6298 3.9C90.7945 3.78733 90.9808 3.731 91.1888 3.731C91.3882 3.731 91.5658 3.78733 91.7218 3.9C91.8865 4.004 92.0252 4.18167 92.1378 4.433L95.5828 12.038C95.6782 12.2373 95.7128 12.4193 95.6868 12.584C95.6608 12.7487 95.5872 12.8787 95.4658 12.974C95.3445 13.0607 95.1842 13.104 94.9848 13.104C94.7422 13.104 94.5515 13.0477 94.4128 12.935C94.2828 12.8137 94.1658 12.6317 94.0618 12.389L93.2168 10.426L93.9188 10.881H88.4328L89.1348 10.426L88.3028 12.389C88.1902 12.6403 88.0732 12.8223 87.9518 12.935C87.8305 13.0477 87.6572 13.104 87.4318 13.104ZM91.1628 5.642L89.3428 9.971L89.0048 9.555H93.3468L93.0218 9.971L91.1888 5.642H91.1628ZM100.072 13.13C99.6908 13.13 99.3094 13.0997 98.9281 13.039C98.5468 12.987 98.1871 12.9047 97.8491 12.792C97.5111 12.6707 97.2078 12.5233 96.9391 12.35C96.7831 12.246 96.6748 12.1203 96.6141 11.973C96.5534 11.8257 96.5318 11.6827 96.5491 11.544C96.5751 11.3967 96.6314 11.271 96.7181 11.167C96.8134 11.0543 96.9304 10.985 97.0691 10.959C97.2078 10.933 97.3594 10.972 97.5241 11.076C97.9054 11.3013 98.3084 11.466 98.7331 11.57C99.1578 11.674 99.6041 11.726 100.072 11.726C100.757 11.726 101.255 11.6133 101.567 11.388C101.879 11.154 102.035 10.855 102.035 10.491C102.035 10.1877 101.922 9.94933 101.697 9.776C101.48 9.60267 101.103 9.45967 100.566 9.347L99.1361 9.048C98.3128 8.87467 97.6974 8.58433 97.2901 8.177C96.8914 7.761 96.6921 7.215 96.6921 6.539C96.6921 6.11433 96.7788 5.72867 96.9521 5.382C97.1254 5.03533 97.3681 4.73633 97.6801 4.485C98.0008 4.23367 98.3778 4.043 98.8111 3.913C99.2531 3.77433 99.7384 3.705 100.267 3.705C100.787 3.705 101.281 3.77 101.749 3.9C102.217 4.03 102.637 4.22067 103.01 4.472C103.149 4.56733 103.24 4.68433 103.283 4.823C103.335 4.96167 103.348 5.10033 103.322 5.239C103.296 5.369 103.235 5.48167 103.14 5.577C103.045 5.67233 102.923 5.72867 102.776 5.746C102.637 5.76333 102.477 5.72 102.295 5.616C101.974 5.434 101.649 5.304 101.32 5.226C100.991 5.148 100.635 5.109 100.254 5.109C99.8554 5.109 99.5131 5.16533 99.2271 5.278C98.9411 5.39067 98.7201 5.551 98.5641 5.759C98.4168 5.95833 98.3431 6.19667 98.3431 6.474C98.3431 6.786 98.4471 7.03733 98.6551 7.228C98.8631 7.41 99.2184 7.553 99.7211 7.657L101.138 7.956C101.996 8.138 102.633 8.424 103.049 8.814C103.474 9.204 103.686 9.724 103.686 10.374C103.686 10.79 103.599 11.167 103.426 11.505C103.261 11.843 103.019 12.1333 102.698 12.376C102.386 12.6187 102.009 12.805 101.567 12.935C101.125 13.065 100.627 13.13 100.072 13.13ZM62.092 31.104C61.884 31.104 61.715 31.0563 61.585 30.961C61.4637 30.8657 61.39 30.74 61.364 30.584C61.338 30.4193 61.3683 30.2373 61.455 30.038L64.887 22.433C64.9997 22.1817 65.134 22.004 65.29 21.9C65.4547 21.7873 65.641 21.731 65.849 21.731C66.0483 21.731 66.226 21.7873 66.382 21.9C66.5467 22.004 66.6853 22.1817 66.798 22.433L70.243 30.038C70.3383 30.2373 70.373 30.4193 70.347 30.584C70.321 30.7487 70.2473 30.8787 70.126 30.974C70.0047 31.0607 69.8443 31.104 69.645 31.104C69.4023 31.104 69.2117 31.0477 69.073 30.935C68.943 30.8137 68.826 30.6317 68.722 30.389L67.877 28.426L68.579 28.881H63.093L63.795 28.426L62.963 30.389C62.8503 30.6403 62.7333 30.8223 62.612 30.935C62.4907 31.0477 62.3173 31.104 62.092 31.104ZM65.823 23.642L64.003 27.971L63.665 27.555H68.007L67.682 27.971L65.849 23.642H65.823ZM75.7484 31.13C74.7951 31.13 73.9761 30.9393 73.2914 30.558C72.6154 30.168 72.0954 29.622 71.7314 28.92C71.3674 28.2093 71.1854 27.373 71.1854 26.411C71.1854 25.6917 71.2894 25.046 71.4974 24.474C71.7054 23.8933 72.0044 23.3993 72.3944 22.992C72.7844 22.576 73.2611 22.2597 73.8244 22.043C74.3964 21.8177 75.0377 21.705 75.7484 21.705C76.2251 21.705 76.6931 21.7657 77.1524 21.887C77.6117 22.0083 78.0147 22.1817 78.3614 22.407C78.5434 22.5197 78.6647 22.6583 78.7254 22.823C78.7861 22.979 78.7991 23.135 78.7644 23.291C78.7297 23.4383 78.6561 23.564 78.5434 23.668C78.4394 23.772 78.3051 23.8327 78.1404 23.85C77.9844 23.8587 77.8111 23.8023 77.6204 23.681C77.3517 23.5077 77.0614 23.382 76.7494 23.304C76.4374 23.226 76.1211 23.187 75.8004 23.187C75.1851 23.187 74.6651 23.3127 74.2404 23.564C73.8157 23.8153 73.4951 24.1793 73.2784 24.656C73.0617 25.1327 72.9534 25.7177 72.9534 26.411C72.9534 27.0957 73.0617 27.6807 73.2784 28.166C73.4951 28.6513 73.8157 29.0197 74.2404 29.271C74.6651 29.5223 75.1851 29.648 75.8004 29.648C76.1297 29.648 76.4547 29.609 76.7754 29.531C77.0961 29.4443 77.3994 29.3143 77.6854 29.141C77.8761 29.0283 78.0451 28.9807 78.1924 28.998C78.3484 29.0067 78.4784 29.0587 78.5824 29.154C78.6864 29.2493 78.7557 29.3707 78.7904 29.518C78.8251 29.6567 78.8164 29.804 78.7644 29.96C78.7124 30.1073 78.6084 30.2373 78.4524 30.35C78.1057 30.6013 77.6897 30.7963 77.2044 30.935C76.7277 31.065 76.2424 31.13 75.7484 31.13ZM80.2209 31.104C80.0129 31.104 79.8439 31.0563 79.7139 30.961C79.5926 30.8657 79.5189 30.74 79.4929 30.584C79.4669 30.4193 79.4972 30.2373 79.5839 30.038L83.0159 22.433C83.1286 22.1817 83.2629 22.004 83.4189 21.9C83.5836 21.7873 83.7699 21.731 83.9779 21.731C84.1772 21.731 84.3549 21.7873 84.5109 21.9C84.6756 22.004 84.8142 22.1817 84.9269 22.433L88.3719 30.038C88.4672 30.2373 88.5019 30.4193 88.4759 30.584C88.4499 30.7487 88.3762 30.8787 88.2549 30.974C88.1336 31.0607 87.9732 31.104 87.7739 31.104C87.5312 31.104 87.3406 31.0477 87.2019 30.935C87.0719 30.8137 86.9549 30.6317 86.8509 30.389L86.0059 28.426L86.7079 28.881H81.2219L81.9239 28.426L81.0919 30.389C80.9792 30.6403 80.8622 30.8223 80.7409 30.935C80.6196 31.0477 80.4462 31.104 80.2209 31.104ZM83.9519 23.642L82.1319 27.971L81.7939 27.555H86.1359L85.8109 27.971L83.9779 23.642H83.9519ZM90.6877 31C90.4017 31 90.1807 30.9263 90.0247 30.779C89.8774 30.623 89.8037 30.402 89.8037 30.116V22.719C89.8037 22.433 89.8774 22.2163 90.0247 22.069C90.1807 21.913 90.4017 21.835 90.6877 21.835H93.2097C94.7437 21.835 95.9267 22.2293 96.7587 23.018C97.5994 23.8067 98.0197 24.9377 98.0197 26.411C98.0197 27.1477 97.9114 27.802 97.6947 28.374C97.4867 28.9373 97.1747 29.414 96.7587 29.804C96.3514 30.194 95.8487 30.493 95.2507 30.701C94.6614 30.9003 93.9811 31 93.2097 31H90.6877ZM91.4677 29.622H93.1057C93.6431 29.622 94.1067 29.557 94.4967 29.427C94.8954 29.2883 95.2247 29.089 95.4847 28.829C95.7534 28.5603 95.9527 28.2267 96.0827 27.828C96.2127 27.4207 96.2777 26.9483 96.2777 26.411C96.2777 25.3363 96.0134 24.5347 95.4847 24.006C94.9561 23.4773 94.1631 23.213 93.1057 23.213H91.4677V29.622ZM100.59 31C100.304 31 100.083 30.9263 99.9271 30.779C99.7797 30.623 99.7061 30.402 99.7061 30.116V22.719C99.7061 22.433 99.7797 22.2163 99.9271 22.069C100.083 21.913 100.304 21.835 100.59 21.835H105.231C105.448 21.835 105.612 21.8913 105.725 22.004C105.846 22.1167 105.907 22.277 105.907 22.485C105.907 22.7017 105.846 22.8707 105.725 22.992C105.612 23.1047 105.448 23.161 105.231 23.161H101.305V25.683H104.945C105.17 25.683 105.339 25.7393 105.452 25.852C105.565 25.9647 105.621 26.1293 105.621 26.346C105.621 26.5627 105.565 26.7273 105.452 26.84C105.339 26.9527 105.17 27.009 104.945 27.009H101.305V29.674H105.231C105.448 29.674 105.612 29.7303 105.725 29.843C105.846 29.9557 105.907 30.1203 105.907 30.337C105.907 30.5537 105.846 30.7183 105.725 30.831C105.612 30.9437 105.448 31 105.231 31H100.59ZM108.243 31.104C108 31.104 107.814 31.0347 107.684 30.896C107.554 30.7573 107.489 30.5667 107.489 30.324V22.511C107.489 22.2597 107.558 22.069 107.697 21.939C107.836 21.8003 108.026 21.731 108.269 21.731C108.486 21.731 108.655 21.7743 108.776 21.861C108.906 21.939 109.023 22.0777 109.127 22.277L112.338 28.218H111.922L115.133 22.277C115.237 22.0777 115.35 21.939 115.471 21.861C115.592 21.7743 115.761 21.731 115.978 21.731C116.221 21.731 116.407 21.8003 116.537 21.939C116.667 22.069 116.732 22.2597 116.732 22.511V30.324C116.732 30.5667 116.667 30.7573 116.537 30.896C116.416 31.0347 116.229 31.104 115.978 31.104C115.735 31.104 115.549 31.0347 115.419 30.896C115.289 30.7573 115.224 30.5667 115.224 30.324V24.305H115.51L112.78 29.284C112.693 29.4313 112.602 29.5397 112.507 29.609C112.412 29.6783 112.282 29.713 112.117 29.713C111.952 29.713 111.818 29.6783 111.714 29.609C111.61 29.531 111.519 29.4227 111.441 29.284L108.685 24.292H108.997V30.324C108.997 30.5667 108.932 30.7573 108.802 30.896C108.681 31.0347 108.494 31.104 108.243 31.104ZM119.581 31.104C119.312 31.104 119.104 31.0303 118.957 30.883C118.818 30.727 118.749 30.5147 118.749 30.246V22.589C118.749 22.3117 118.818 22.0993 118.957 21.952C119.104 21.8047 119.312 21.731 119.581 21.731C119.85 21.731 120.053 21.8047 120.192 21.952C120.339 22.0993 120.413 22.3117 120.413 22.589V30.246C120.413 30.5147 120.344 30.727 120.205 30.883C120.066 31.0303 119.858 31.104 119.581 31.104ZM126.682 31.13C125.729 31.13 124.91 30.9393 124.225 30.558C123.549 30.168 123.029 29.622 122.665 28.92C122.301 28.2093 122.119 27.373 122.119 26.411C122.119 25.6917 122.223 25.046 122.431 24.474C122.639 23.8933 122.938 23.3993 123.328 22.992C123.718 22.576 124.195 22.2597 124.758 22.043C125.33 21.8177 125.971 21.705 126.682 21.705C127.159 21.705 127.627 21.7657 128.086 21.887C128.545 22.0083 128.948 22.1817 129.295 22.407C129.477 22.5197 129.598 22.6583 129.659 22.823C129.72 22.979 129.733 23.135 129.698 23.291C129.663 23.4383 129.59 23.564 129.477 23.668C129.373 23.772 129.239 23.8327 129.074 23.85C128.918 23.8587 128.745 23.8023 128.554 23.681C128.285 23.5077 127.995 23.382 127.683 23.304C127.371 23.226 127.055 23.187 126.734 23.187C126.119 23.187 125.599 23.3127 125.174 23.564C124.749 23.8153 124.429 24.1793 124.212 24.656C123.995 25.1327 123.887 25.7177 123.887 26.411C123.887 27.0957 123.995 27.6807 124.212 28.166C124.429 28.6513 124.749 29.0197 125.174 29.271C125.599 29.5223 126.119 29.648 126.734 29.648C127.063 29.648 127.388 29.609 127.709 29.531C128.03 29.4443 128.333 29.3143 128.619 29.141C128.81 29.0283 128.979 28.9807 129.126 28.998C129.282 29.0067 129.412 29.0587 129.516 29.154C129.62 29.2493 129.689 29.3707 129.724 29.518C129.759 29.6567 129.75 29.804 129.698 29.96C129.646 30.1073 129.542 30.2373 129.386 30.35C129.039 30.6013 128.623 30.7963 128.138 30.935C127.661 31.065 127.176 31.13 126.682 31.13ZM131.155 31.104C130.947 31.104 130.778 31.0563 130.648 30.961C130.526 30.8657 130.453 30.74 130.427 30.584C130.401 30.4193 130.431 30.2373 130.518 30.038L133.95 22.433C134.062 22.1817 134.197 22.004 134.353 21.9C134.517 21.7873 134.704 21.731 134.912 21.731C135.111 21.731 135.289 21.7873 135.445 21.9C135.609 22.004 135.748 22.1817 135.861 22.433L139.306 30.038C139.401 30.2373 139.436 30.4193 139.41 30.584C139.384 30.7487 139.31 30.8787 139.189 30.974C139.067 31.0607 138.907 31.104 138.708 31.104C138.465 31.104 138.274 31.0477 138.136 30.935C138.006 30.8137 137.889 30.6317 137.785 30.389L136.94 28.426L137.642 28.881H132.156L132.858 28.426L132.026 30.389C131.913 30.6403 131.796 30.8223 131.675 30.935C131.553 31.0477 131.38 31.104 131.155 31.104ZM134.886 23.642L133.066 27.971L132.728 27.555H137.07L136.744 27.971L134.912 23.642H134.886ZM143.795 31.13C143.413 31.13 143.032 31.0997 142.651 31.039C142.269 30.987 141.91 30.9047 141.572 30.792C141.234 30.6707 140.93 30.5233 140.662 30.35C140.506 30.246 140.397 30.1203 140.337 29.973C140.276 29.8257 140.254 29.6827 140.272 29.544C140.298 29.3967 140.354 29.271 140.441 29.167C140.536 29.0543 140.653 28.985 140.792 28.959C140.93 28.933 141.082 28.972 141.247 29.076C141.628 29.3013 142.031 29.466 142.456 29.57C142.88 29.674 143.327 29.726 143.795 29.726C144.479 29.726 144.978 29.6133 145.29 29.388C145.602 29.154 145.758 28.855 145.758 28.491C145.758 28.1877 145.645 27.9493 145.42 27.776C145.203 27.6027 144.826 27.4597 144.289 27.347L142.859 27.048C142.035 26.8747 141.42 26.5843 141.013 26.177C140.614 25.761 140.415 25.215 140.415 24.539C140.415 24.1143 140.501 23.7287 140.675 23.382C140.848 23.0353 141.091 22.7363 141.403 22.485C141.723 22.2337 142.1 22.043 142.534 21.913C142.976 21.7743 143.461 21.705 143.99 21.705C144.51 21.705 145.004 21.77 145.472 21.9C145.94 22.03 146.36 22.2207 146.733 22.472C146.871 22.5673 146.962 22.6843 147.006 22.823C147.058 22.9617 147.071 23.1003 147.045 23.239C147.019 23.369 146.958 23.4817 146.863 23.577C146.767 23.6723 146.646 23.7287 146.499 23.746C146.36 23.7633 146.2 23.72 146.018 23.616C145.697 23.434 145.372 23.304 145.043 23.226C144.713 23.148 144.358 23.109 143.977 23.109C143.578 23.109 143.236 23.1653 142.95 23.278C142.664 23.3907 142.443 23.551 142.287 23.759C142.139 23.9583 142.066 24.1967 142.066 24.474C142.066 24.786 142.17 25.0373 142.378 25.228C142.586 25.41 142.941 25.553 143.444 25.657L144.861 25.956C145.719 26.138 146.356 26.424 146.772 26.814C147.196 27.204 147.409 27.724 147.409 28.374C147.409 28.79 147.322 29.167 147.149 29.505C146.984 29.843 146.741 30.1333 146.421 30.376C146.109 30.6187 145.732 30.805 145.29 30.935C144.848 31.065 144.349 31.13 143.795 31.13ZM62.833 49.104C62.5643 49.104 62.3563 49.0303 62.209 48.883C62.0703 48.727 62.001 48.5147 62.001 48.246V40.589C62.001 40.3117 62.0703 40.0993 62.209 39.952C62.3563 39.8047 62.5643 39.731 62.833 39.731C63.1017 39.731 63.3053 39.8047 63.444 39.952C63.5913 40.0993 63.665 40.3117 63.665 40.589V48.246C63.665 48.5147 63.5957 48.727 63.457 48.883C63.3183 49.0303 63.1103 49.104 62.833 49.104ZM66.2939 49.065C65.9993 49.065 65.7609 48.974 65.5789 48.792C65.4056 48.61 65.3189 48.376 65.3189 48.09C65.3189 47.8127 65.4056 47.5873 65.5789 47.414C65.7609 47.232 65.9993 47.141 66.2939 47.141C66.5973 47.141 66.8313 47.232 66.9959 47.414C67.1693 47.5873 67.2559 47.8127 67.2559 48.09C67.2559 48.376 67.1693 48.61 66.9959 48.792C66.8313 48.974 66.5973 49.065 66.2939 49.065ZM71.0987 49.104C70.83 49.104 70.622 49.0303 70.4747 48.883C70.336 48.727 70.2667 48.5147 70.2667 48.246V41.226H67.7317C67.5063 41.226 67.3287 41.1653 67.1987 41.044C67.0773 40.914 67.0167 40.7407 67.0167 40.524C67.0167 40.2987 67.0773 40.1297 67.1987 40.017C67.3287 39.8957 67.5063 39.835 67.7317 39.835H74.4657C74.691 39.835 74.8643 39.8957 74.9857 40.017C75.1157 40.1297 75.1807 40.2987 75.1807 40.524C75.1807 40.7407 75.1157 40.914 74.9857 41.044C74.8643 41.1653 74.691 41.226 74.4657 41.226H71.9307V48.246C71.9307 48.5147 71.8613 48.727 71.7227 48.883C71.584 49.0303 71.376 49.104 71.0987 49.104ZM75.917 49.065C75.6223 49.065 75.384 48.974 75.202 48.792C75.0287 48.61 74.942 48.376 74.942 48.09C74.942 47.8127 75.0287 47.5873 75.202 47.414C75.384 47.232 75.6223 47.141 75.917 47.141C76.2203 47.141 76.4543 47.232 76.619 47.414C76.7923 47.5873 76.879 47.8127 76.879 48.09C76.879 48.376 76.7923 48.61 76.619 48.792C76.4543 48.974 76.2203 49.065 75.917 49.065ZM79.3496 49.104C79.0809 49.104 78.8729 49.0303 78.7256 48.883C78.5869 48.727 78.5176 48.5147 78.5176 48.246V40.589C78.5176 40.3117 78.5869 40.0993 78.7256 39.952C78.8729 39.8047 79.0809 39.731 79.3496 39.731C79.6183 39.731 79.8219 39.8047 79.9606 39.952C80.1079 40.0993 80.1816 40.3117 80.1816 40.589V48.246C80.1816 48.5147 80.1123 48.727 79.9736 48.883C79.8349 49.0303 79.6269 49.104 79.3496 49.104Z" fill="#FAFAFA"/>
</svg>
