<svg width="537" height="411" viewBox="0 0 537 411" fill="none" xmlns="http://www.w3.org/2000/svg">
<g clip-path="url(#clip0)">
<path d="M364.462 409.687C363.939 410.133 363.398 410.568 362.853 410.997H296.584C296.204 410.568 295.823 410.133 295.449 409.687C292.389 406.024 289.695 402.071 287.406 397.884C281.966 388.1 280.091 375.274 280.091 362.21C280.091 361.412 280.097 360.614 280.113 359.816C280.174 356.152 280.378 352.481 280.681 348.872C280.736 348.244 280.792 347.622 280.852 347.001C281.343 341.823 282.032 336.782 282.815 332.072C282.914 331.472 283.013 330.878 283.118 330.289C284.713 320.934 286.852 311.679 289.523 302.572C289.523 302.572 289.611 302.594 289.782 302.638C290.273 302.776 291.447 303.1 293.172 303.612C297.924 305.021 306.848 307.86 317.139 312.081C317.702 312.306 318.269 312.543 318.843 312.785C327.549 316.368 335.977 320.593 344.056 325.425C344.557 325.727 345.053 326.035 345.549 326.344V326.388L344.464 361.478L354.165 332.265C356.144 333.767 358.035 335.324 359.837 336.936C360.334 337.377 360.83 337.828 361.309 338.295C365.404 342.042 368.899 346.394 371.672 351.199C386.186 377.321 380.095 396.525 364.462 409.687Z" fill="#F2F2F2"/>
<path d="M355.119 410.997H353.355C353.344 410.562 353.327 410.128 353.3 409.687C352.589 396.486 346.917 381.91 339.194 367.839C338.918 367.328 338.637 366.805 338.34 366.293C334.591 359.602 330.413 353.054 326.097 346.83C325.766 346.346 325.424 345.856 325.083 345.372C319.339 337.189 313.408 329.618 308.05 323.152C307.675 322.69 307.289 322.239 306.909 321.793C298.965 312.284 292.411 305.356 289.782 302.638C289.391 302.236 289.088 301.928 288.878 301.713C288.685 301.504 288.569 301.394 288.547 301.372L289.165 300.756L289.17 300.739L289.799 300.123C289.821 300.151 290.201 300.514 290.873 301.213C291.441 301.79 292.218 302.599 293.172 303.612C296.502 307.134 302.008 313.126 308.38 320.725C308.75 321.166 309.13 321.622 309.51 322.079C313.86 327.323 318.572 333.266 323.241 339.655C324.416 341.261 325.555 342.855 326.659 344.436C327.006 344.921 327.348 345.405 327.679 345.889C332.348 352.613 336.425 359.081 339.911 365.292L340.781 366.849C349.667 383.027 354.452 397.356 355.069 409.687C355.091 410.128 355.108 410.562 355.119 410.997Z" fill="white"/>
<path d="M318.11 310.793C317.795 311.228 317.476 311.657 317.14 312.081C314.612 315.333 311.667 318.239 308.38 320.725C307.901 321.078 307.41 321.441 306.909 321.793C305.541 322.746 304.124 323.628 302.664 324.434C296.651 327.777 289.981 329.775 283.118 330.289C282.897 330.311 282.671 330.328 282.451 330.339C282.351 330.927 282.258 331.516 282.153 332.116C282.374 332.105 282.594 332.094 282.815 332.072C290.085 331.599 297.159 329.519 303.524 325.98C305.082 325.118 306.592 324.174 308.05 323.152C308.546 322.805 309.031 322.442 309.51 322.079C313.025 319.414 316.164 316.288 318.843 312.785C319.162 312.361 319.477 311.932 319.785 311.503C319.212 311.261 318.655 311.024 318.11 310.793Z" fill="white"/>
<path d="M344.657 324.181C344.464 324.599 344.26 325.012 344.056 325.424C340.125 333.243 334.104 339.823 326.659 344.436C326.141 344.761 325.617 345.075 325.083 345.372C324.923 345.465 324.752 345.564 324.592 345.652C317.936 349.339 310.494 351.385 302.886 351.62C295.278 351.854 287.723 350.271 280.852 347.001C280.687 346.924 280.527 346.847 280.367 346.77C280.306 347.397 280.251 348.024 280.207 348.657C280.362 348.728 280.521 348.806 280.681 348.872C287.75 352.124 295.487 353.668 303.264 353.377C311.042 353.087 318.642 350.97 325.446 347.199C325.667 347.078 325.882 346.957 326.097 346.83C326.632 346.522 327.161 346.208 327.679 345.889C335.309 341.141 341.49 334.396 345.55 326.387C345.765 325.975 345.969 325.557 346.167 325.133C345.666 324.814 345.164 324.495 344.657 324.181Z" fill="white"/>
<path d="M360.13 335.687C360.036 336.105 359.942 336.524 359.838 336.936C357.002 348.552 349.887 358.676 339.911 365.292C339.398 365.638 338.869 365.969 338.34 366.293C337.772 366.634 337.204 366.975 336.62 367.295C327.641 372.256 317.304 374.207 307.131 372.86C296.958 371.514 287.487 366.942 280.113 359.816C279.987 359.701 279.866 359.58 279.744 359.459C279.744 360.279 279.739 361.088 279.75 361.902C279.86 362.007 279.976 362.111 280.091 362.21C287.769 369.153 297.429 373.526 307.72 374.715C318.011 375.904 328.417 373.85 337.48 368.841C338.064 368.522 338.637 368.192 339.194 367.839C339.734 367.52 340.258 367.19 340.781 366.849C350.9 360.166 358.206 350.004 361.309 338.295C361.414 337.899 361.519 337.503 361.612 337.101C361.133 336.617 360.631 336.16 360.13 335.687Z" fill="white"/>
<path d="M313.914 246.081H0V10.9724H313.914V246.081Z" fill="white"/>
<path d="M76.0673 60.0413C82.9683 60.0413 88.5627 54.4566 88.5627 47.5676C88.5627 40.6785 82.9683 35.0939 76.0673 35.0939C69.1663 35.0939 63.5719 40.6785 63.5719 47.5676C63.5719 54.4566 69.1663 60.0413 76.0673 60.0413Z" fill="#E6E6E6"/>
<path d="M104.926 39.2518C104.374 39.2528 103.845 39.4723 103.455 39.8621C103.066 40.2518 102.847 40.7801 102.847 41.3308C102.847 41.8815 103.066 42.4097 103.455 42.7995C103.845 43.1893 104.374 43.4087 104.926 43.4097H256.977C257.529 43.4087 258.057 43.1893 258.447 42.7995C258.837 42.4097 259.056 41.8815 259.056 41.3308C259.056 40.7801 258.837 40.2518 258.447 39.8621C258.057 39.4723 257.529 39.2528 256.977 39.2518H104.926Z" fill="#E6E6E6"/>
<path d="M104.926 51.7255C104.373 51.7243 103.843 51.9422 103.452 52.3313C103.06 52.7203 102.84 53.2487 102.839 53.8C102.838 54.3514 103.056 54.8807 103.446 55.2714C103.835 55.6621 104.365 55.8822 104.917 55.8834H201.045C201.319 55.8839 201.59 55.8304 201.843 55.7262C202.097 55.6219 202.327 55.4689 202.52 55.2758C202.714 55.0827 202.868 54.8533 202.973 54.6009C203.078 54.3484 203.132 54.0777 203.132 53.8044C203.132 53.5311 203.078 53.2605 202.973 53.008C202.868 52.7555 202.714 52.5262 202.52 52.3331C202.327 52.14 202.097 51.9869 201.843 51.8826C201.59 51.7784 201.319 51.725 201.045 51.7255H104.926Z" fill="#E6E6E6"/>
<path d="M313.914 246.081H0V10.9724H313.914V246.081ZM3.51348 242.574H310.4V14.4798H3.51348V242.574Z" fill="#E6E6E6"/>
<path d="M17.5455 82.6708V222.509H296.368V82.6708H17.5455ZM295.028 117.296H226.998V84.0089H295.028V117.296ZM157.627 117.296V84.0089H225.657V117.296H157.627ZM225.657 118.634V151.921H157.627V118.634H225.657ZM156.287 117.296H88.2565V84.0089H156.287V117.296ZM156.287 118.634V151.921H88.2565V118.634H156.287ZM86.916 151.921H18.886V118.634H86.916V151.921ZM86.916 153.259V186.546H18.886V153.259H86.916ZM88.2565 153.259H156.287V186.546H88.2565V153.259ZM156.287 187.884V221.171H88.2565V187.884H156.287ZM157.627 187.884H225.657V221.171H157.627V187.884ZM157.627 186.546V153.259H225.657V186.546H157.627ZM226.998 153.259H295.028V186.546H226.998V153.259ZM226.998 151.921V118.634H295.028V151.921H226.998ZM86.916 84.0089V117.296H18.886V84.0089H86.916ZM18.886 187.884H86.916V221.171H18.886V187.884ZM226.998 221.171V187.884H295.028V221.171H226.998Z" fill="#E4E4E4"/>
<path d="M132.005 120.292L104.261 119.665C101.486 108.933 102.736 98.7158 104.95 89.3002L132.693 89.9272C129.887 99.8265 129.65 110.276 132.005 120.292Z" fill="#73204E"/>
<path d="M109.703 96.0108L109.718 94.957L124.091 95.4695L124.076 96.5234L109.703 96.0108Z" fill="white"/>
<path d="M109.643 100.226L109.658 99.1724L124.031 99.6856L124.016 100.739L109.643 100.226Z" fill="white"/>
<path d="M109.582 104.441L109.597 103.388L123.97 103.901L123.955 104.955L109.582 104.441Z" fill="white"/>
<path d="M109.522 108.657L109.536 107.603L123.91 108.116L123.894 109.17L109.522 108.657Z" fill="white"/>
<path d="M109.461 112.872L109.476 111.818L123.85 112.331L123.834 113.385L109.461 112.872Z" fill="white"/>
<path d="M71.6826 197.905L43.9392 197.278C41.1642 186.547 42.4135 176.329 44.628 166.914L72.3713 167.541C69.5651 177.44 69.3281 187.889 71.6826 197.905Z" fill="#F0F0F0"/>
<path d="M49.3811 173.625L49.3958 172.571L63.7693 173.083L63.7539 174.137L49.3811 173.625Z" fill="white"/>
<path d="M49.3208 177.84L49.3355 176.786L63.7083 177.299L63.6936 178.353L49.3208 177.84Z" fill="white"/>
<path d="M49.2598 182.055L49.2752 181.001L63.648 181.515L63.6333 182.568L49.2598 182.055Z" fill="white"/>
<path d="M49.1995 186.27L49.2142 185.217L63.5877 185.73L63.5722 186.784L49.1995 186.27Z" fill="white"/>
<path d="M49.1392 190.486L49.1539 189.432L63.5274 189.945L63.5119 190.999L49.1392 190.486Z" fill="white"/>
<path d="M216.456 162.444L188.713 161.817C185.938 151.086 187.187 140.868 189.401 131.452L217.145 132.079C214.338 141.979 214.101 152.428 216.456 162.444Z" fill="#F0F0F0"/>
<path d="M194.154 138.163L194.169 137.109L208.543 137.622L208.527 138.676L194.154 138.163Z" fill="white"/>
<path d="M194.094 142.378L194.109 141.325L208.482 141.838L208.467 142.892L194.094 142.378Z" fill="white"/>
<path d="M194.033 146.594L194.049 145.54L208.421 146.053L208.407 147.107L194.033 146.594Z" fill="white"/>
<path d="M193.973 150.809L193.988 149.755L208.361 150.268L208.346 151.322L193.973 150.809Z" fill="white"/>
<path d="M193.912 155.024L193.927 153.97L208.301 154.484L208.285 155.537L193.912 155.024Z" fill="white"/>
<path d="M204.392 155.753L176.648 155.126C173.873 144.395 175.122 134.177 177.337 124.762L205.08 125.389C202.274 135.288 202.037 145.737 204.392 155.753Z" fill="#73204E"/>
<path d="M182.09 131.472L182.105 130.419L196.478 130.931L196.463 131.985L182.09 131.472Z" fill="white"/>
<path d="M182.03 135.688L182.044 134.634L196.417 135.147L196.402 136.201L182.03 135.688Z" fill="white"/>
<path d="M181.969 139.903L181.984 138.849L196.357 139.362L196.342 140.416L181.969 139.903Z" fill="white"/>
<path d="M181.908 144.118L181.923 143.064L196.297 143.577L196.281 144.631L181.908 144.118Z" fill="white"/>
<path d="M181.848 148.333L181.863 147.28L196.236 147.793L196.221 148.847L181.848 148.333Z" fill="white"/>
<path d="M306.716 216.874L278.972 216.247C276.197 205.516 277.446 195.298 279.661 185.882L307.404 186.509C304.598 196.409 304.361 206.858 306.716 216.874Z" fill="#73204E"/>
<path d="M284.414 192.593L284.429 191.539L298.802 192.052L298.787 193.106L284.414 192.593Z" fill="white"/>
<path d="M284.354 196.808L284.368 195.754L298.742 196.267L298.726 197.321L284.354 196.808Z" fill="white"/>
<path d="M284.293 201.024L284.308 199.97L298.681 200.482L298.666 201.536L284.293 201.024Z" fill="white"/>
<path d="M284.232 205.239L284.248 204.185L298.62 204.698L298.605 205.751L284.232 205.239Z" fill="white"/>
<path d="M284.172 209.454L284.187 208.4L298.56 208.913L298.545 209.967L284.172 209.454Z" fill="white"/>
<path d="M276.778 125.644L249.035 125.017C246.26 114.286 247.509 104.068 249.724 94.6528L277.467 95.2799C274.661 105.179 274.424 115.628 276.778 125.644Z" fill="#F0F0F0"/>
<path d="M254.477 101.364L254.491 100.31L268.865 100.822L268.849 101.876L254.477 101.364Z" fill="white"/>
<path d="M254.416 105.579L254.431 104.525L268.804 105.038L268.789 106.092L254.416 105.579Z" fill="white"/>
<path d="M254.355 109.794L254.371 108.74L268.744 109.253L268.729 110.307L254.355 109.794Z" fill="white"/>
<path d="M254.295 114.009L254.31 112.955L268.683 113.469L268.668 114.522L254.295 114.009Z" fill="white"/>
<path d="M254.235 118.224L254.249 117.171L268.623 117.684L268.608 118.738L254.235 118.224Z" fill="white"/>
<path d="M305.219 194.496C306.176 194.261 307.07 193.819 307.837 193.202C308.604 192.585 309.226 191.807 309.66 190.924C310.094 190.041 310.328 189.073 310.347 188.09C310.365 187.107 310.168 186.131 309.768 185.232L327.261 168.9L315.159 165.997L300.403 181.951C298.934 182.722 297.8 184.004 297.215 185.553C296.631 187.103 296.635 188.813 297.229 190.359C297.823 191.906 298.964 193.181 300.437 193.943C301.909 194.706 303.611 194.902 305.219 194.496H305.219Z" fill="#FFB6B6"/>
<path d="M314.256 181.341L306.098 169.858L336.741 138.22L343.856 88.3491C344.207 85.884 345.098 83.5265 346.466 81.4438C347.833 79.3612 349.642 77.6045 351.766 76.2986C353.89 74.9926 356.275 74.1694 358.754 73.8873C361.232 73.6052 363.742 73.8712 366.105 74.6664C370.373 76.1075 373.894 79.1797 375.895 83.209C377.896 87.2383 378.215 91.8955 376.78 96.1589L358.627 149.925L314.256 181.341Z" fill="#A42D6F"/>
<path d="M371.791 393.834L362.735 393.834L358.427 358.963L371.793 358.964L371.791 393.834Z" fill="#FFB6B6"/>
<path d="M376.663 411H370.237L369.09 404.944L366.152 411H349.109C348.292 411 347.496 410.739 346.838 410.256C346.18 409.773 345.694 409.092 345.451 408.314C345.208 407.535 345.22 406.699 345.487 405.928C345.753 405.157 346.259 404.492 346.932 404.028L360.542 394.644V388.521L374.858 389.375L376.663 411Z" fill="#2F2E41"/>
<path d="M427.664 384.634L419.709 388.955L399.228 360.381L410.969 354.004L427.664 384.634Z" fill="#FFB6B6"/>
<path d="M440.162 397.388L434.517 400.454L430.61 395.681L430.929 402.403L415.959 410.535C415.241 410.925 414.417 411.076 413.608 410.965C412.798 410.855 412.046 410.489 411.459 409.921C410.873 409.353 410.484 408.613 410.349 407.809C410.213 407.004 410.339 406.178 410.708 405.45L418.17 390.713L415.239 385.335L428.222 379.254L440.162 397.388Z" fill="#2F2E41"/>
<path d="M375.607 381.417H356.891V314.887L345.304 271.513C336.989 240.494 334.779 208.16 338.797 176.301L338.813 176.171L338.914 176.087C339.211 175.837 368.866 151.359 387.624 170.084C400.268 182.706 388.387 228.091 387.722 230.582V308.821L375.607 381.417Z" fill="#2F2E41"/>
<path d="M333.097 188.386L339.13 128.169C338.346 126.527 327.065 116.125 338.86 97.8373L351.6 67.9843L375.459 67.6141L375.56 67.7144C381.173 73.3056 385.313 80.1962 387.61 87.7721C389.908 95.348 390.292 103.374 388.729 111.134L381.699 146.226L387.79 170.549L333.097 188.386Z" fill="#A42D6F"/>
<path d="M364.441 315.23L402.889 369.217L417.638 358.749L385.527 292.877L364.441 315.23Z" fill="#2F2E41"/>
<path d="M361.3 61.916C373.468 61.916 383.331 52.0695 383.331 39.9232C383.331 27.7769 373.468 17.9304 361.3 17.9304C349.133 17.9304 339.269 27.7769 339.269 39.9232C339.269 52.0695 349.133 61.916 361.3 61.916Z" fill="#FFB6B6"/>
<path opacity="0.1" d="M355.886 119.47L361.918 155.601L355.886 185.71H343.821L349.305 155.601L355.886 119.47Z" fill="black"/>
<path d="M361.641 216.732C362.374 216.075 362.954 215.265 363.34 214.36C363.726 213.455 363.908 212.476 363.874 211.493C363.84 210.51 363.59 209.547 363.143 208.67C362.695 207.794 362.061 207.026 361.284 206.421L369.014 183.791L356.968 186.918L351.475 207.928C350.543 209.299 350.147 210.962 350.362 212.604C350.577 214.246 351.387 215.753 352.641 216.838C353.894 217.923 355.502 218.512 357.161 218.492C358.82 218.473 360.414 217.846 361.641 216.732Z" fill="#FFB6B6"/>
<path d="M363.408 200.879L350.795 194.583L362.906 152.268L345.661 104.927C344.809 102.587 344.483 100.088 344.707 97.6084C344.931 95.1285 345.699 92.7282 346.956 90.5779C348.214 88.4275 349.93 86.58 351.984 85.1663C354.037 83.7526 356.377 82.8075 358.837 82.3981C363.282 81.6636 367.837 82.7192 371.503 85.3332C375.169 87.9473 377.646 91.9063 378.392 96.3417L387.736 152.308L363.408 200.879Z" fill="#A42D6F"/>
<path d="M537 410.201C537 410.306 536.98 410.409 536.94 410.506C536.9 410.603 536.841 410.691 536.767 410.765C536.693 410.839 536.605 410.897 536.508 410.937C536.411 410.977 536.307 410.997 536.202 410.997H102.358C102.147 410.997 101.944 410.913 101.794 410.764C101.645 410.615 101.561 410.412 101.561 410.201C101.561 409.99 101.645 409.787 101.794 409.638C101.944 409.489 102.147 409.405 102.358 409.405H536.202C536.414 409.405 536.616 409.489 536.766 409.638C536.915 409.788 536.999 409.99 537 410.201Z" fill="#CACACA"/>
<path d="M446.984 38.8478C444.204 43.3522 438.317 45.3378 433.095 44.4359C427.873 43.5341 423.335 40.1695 419.984 36.0714C416.632 31.9733 414.314 27.1495 412.032 22.3745C409.751 17.5994 407.443 12.7719 404.109 8.66026C400.774 4.54855 396.26 1.15809 391.046 0.213734C388.208 -0.300202 384.994 0.0391009 382.923 2.0433C381.495 3.54551 380.716 5.54735 380.753 7.61765C379.85 7.30046 378.883 7.20976 377.938 7.35353C376.992 7.49731 376.096 7.87115 375.329 8.44211C374.562 9.01307 373.947 9.76361 373.539 10.6276C373.131 11.4915 372.943 12.4424 372.99 13.3964C372.913 13.3949 372.836 13.3898 372.759 13.3898C363.043 7.87545 348.296 11.0788 348.296 17.1006C342.964 17.1006 336.449 22.3564 336.449 30.3375C347.473 30.3375 353.961 44.4383 347.525 54.5488C345.864 57.1276 344.032 59.5932 342.042 61.9292H355.829C356.985 60.2726 357.683 58.3404 357.851 56.3281C358.358 58.1563 358.66 60.0347 358.754 61.9292C358.754 61.9292 396.412 66.7732 386.692 29.3027C387.335 29.2707 387.961 29.0814 388.514 28.7516C389.981 27.8685 390.781 26.001 390.921 24.1059C391.284 24.2029 391.646 24.2996 392.007 24.3961C394.598 25.0943 397.289 25.999 399.068 28.0054C402.073 31.3964 401.441 36.5434 402.532 40.9382C403.848 46.238 407.786 50.5248 412.159 53.8036C416.859 57.3265 422.348 60.0029 428.198 60.5584C434.049 61.114 440.274 59.338 444.328 55.0906C448.382 50.8431 449.793 44.0007 446.984 38.8478Z" fill="#2F2E41"/>
</g>
<defs>
<clipPath id="clip0">
<rect width="537" height="411" fill="white"/>
</clipPath>
</defs>
</svg>
