<?xml version="1.0" encoding="utf-8"?>
<!-- Generator: Adobe Illustrator 21.0.0, SVG Export Plug-In . SVG Version: 6.00 Build 0)  -->
<svg version="1.1" xmlns="http://www.w3.org/2000/svg" xmlns:xlink="http://www.w3.org/1999/xlink" x="0px" y="0px"
	viewBox="0 0 116.8 29.7" style="enable-background:new 0 0 116.8 29.7;" xml:space="preserve">
	<style type="text/css">
		.st0 {
			fill: #57A52D;
		}

		.st1 {
			fill: #00A3C9;
		}

		.st2 {
			fill: #fff;
		}

		.st3 {
			display: none;
		}

		.st4 {
			display: inline;
		}

		.st5 {
			fill: #1D1D1D;
		}
	</style>
	<g id="Layer_1">
		<g>
			<g>
				<path class="st0" d="M34.4,0.1h-4.9l0,0c-2.7,0-4.9,2.2-4.9,4.9v8.2h4.9c2.7,0,4.9-2.2,4.9-4.9V0.1z" />
				<path class="st0" d="M24.6,16.5h4.9h0c2.7,0,4.9,2.2,4.9,4.9v8.2h-4.9c-2.7,0-4.9-2.2-4.9-4.9V16.5z" />
				<path class="st0" d="M0,29.5h4.9h0c2.7,0,4.9-2.2,4.9-4.9v-8.2H4.9c-2.7,0-4.9,2.2-4.9,4.9V29.5z" />
				<path class="st0" d="M9.8,13.2H4.9h0C2.2,13.2,0,11,0,8.3V0.1h4.9c2.7,0,4.9,2.2,4.9,4.9V13.2z" />
				<rect x="13.3" y="0.1" class="st1" width="7.9" height="13.1" />
				<rect x="13.3" y="16.5" class="st1" width="7.9" height="13.1" />
				<path class="st2" d="M47.2,1.2l-0.1-1h1.1v4.4c0,1.8-1.2,3.1-3,3.1c-2.6,0-2.7-2.6-2.7-2.8V1.2l-0.1-1h1.1v4.6
				c0,1.2,0.8,2.1,1.9,2.1c1.1,0,1.9-1,1.9-2.1V1.2z" />
				<polygon class="st2" points="57.3,6.6 57.4,7.5 56.9,7.5 52.7,2.8 52.2,2.1 52.2,6.6 52.3,7.5 51.3,7.5 51.3,1.2 51.1,0.1 
				51.8,0.1 55.9,4.8 56.4,5.5 56.4,1.2 56.3,0.1 57.3,0.1 			" />
				<polygon class="st2" points="61.4,6.6 61.5,7.5 60.4,7.5 60.4,1.2 60.3,0.1 61.4,0.1 			" />
				<polygon class="st2"
					points="67,7.6 66.3,7.5 64.1,1.4 63.4,0.1 64.8,0.1 66.5,5.1 66.8,6 67.1,5.1 68.9,0.1 69.9,0.1 			" />
				<polygon class="st2" points="71.9,1.2 71.7,0.1 75.6,0.1 75.6,1 72.9,1 72.9,3.3 75.2,3.3 75,4.1 72.9,4.1 72.9,6.7 75.7,6.7 
				75.5,7.5 71.9,7.5 			" />
				<path class="st2" d="M79.9,3.9c0.8,0,1.6-0.7,1.6-1.6c0-0.9-0.7-1.4-1.6-1.4h-0.7v2.9H79.9z M82.1,7.5l-2-2.8c-0.1,0-0.3,0-0.9,0
				v1.9l0.1,0.8h-1.1V1.2l-0.1-1h2.1c1.2,0,2.4,0.7,2.4,2.2c0,0.9-0.5,1.7-1.4,2.1l2.3,3H82.1z" />
				<path class="st2" d="M85,5.8c0,0,0.8,1,1.9,1c0.6,0,1.2-0.4,1.2-1.2c0-1.5-3.2-1.5-3.2-3.5C84.9,1,85.8,0,87,0
				c0.9,0,1.5,0.3,1.8,0.5l-0.3,0.8c0-0.1-0.7-0.5-1.6-0.5c-0.5,0-1.1,0.4-1.1,1c0,1.6,3.1,1.5,3.1,3.7c0,1.3-0.9,2.2-2.2,2.2
				c-1.3,0-2-0.8-2-0.8C84.9,6.8,85,5.8,85,5.8" />
				<polygon class="st2" points="92.6,6.6 92.7,7.5 91.6,7.5 91.6,1.2 91.4,0.1 92.6,0.1 			" />
				<path class="st2" d="M96.8,0.9v5.7h1.4c1.3,0,2.2-1.3,2.2-2.8c0-1.6-0.9-2.9-2.2-2.9H96.8z M101.5,3.8c0,2.1-1.3,3.7-3.4,3.7
				h-2.3V1.2l-0.1-1h2.8C100,0.1,101.5,1.3,101.5,3.8" />
				<path class="st2" d="M104.7,4.7h2.2l-0.9-2.6l-0.1-0.4l-0.1,0.4L104.7,4.7z M105.5,0.1l0.7-0.1l2.3,6.3l0.6,1.2h-1.2l-0.7-1.9
				h-2.7l-0.7,1.9h-1L105.5,0.1z" />
				<path class="st2" d="M112.1,0.9v5.7h1.4c1.3,0,2.2-1.3,2.2-2.8c0-1.6-0.9-2.9-2.2-2.9H112.1z M116.8,3.8c0,2.1-1.3,3.7-3.4,3.7
				h-2.3V1.2l-0.1-1h2.8C115.2,0.1,116.8,1.3,116.8,3.8" />
				<polygon class="st2" points="48.5,17.7 48.5,18.5 48,18.5 43.8,13.8 43.4,13.1 43.4,17.7 43.5,18.5 42.4,18.5 42.4,12.2 
				42.3,11.2 43,11.2 47.1,15.8 47.6,16.5 47.6,12.2 47.4,11.2 48.5,11.2 			" />
				<path class="st2" d="M52.3,15.7h2.2l-0.9-2.6l-0.1-0.4l-0.1,0.4L52.3,15.7z M53.1,11.2l0.7-0.1l2.3,6.3l0.6,1.2h-1.2l-0.7-1.9H52
				l-0.7,1.9h-1L53.1,11.2z" />
				<path class="st2" d="M63.3,12.7c-0.5-0.5-1.1-0.8-1.9-0.8c-1.4,0-2.4,1.5-2.4,3c0,1.8,1.3,2.9,2.5,2.9c1,0,2.2-0.9,2.2-0.9
				l0.2,0.8c0,0-1.1,1-2.6,1c-1.7,0-3.4-1.3-3.4-3.7c0-2.3,1.6-4,3.5-4c0.9,0,1.7,0.3,2.3,0.9L63.3,12.7z" />
				<polygon class="st2" points="67.2,17.7 67.3,18.5 66.2,18.5 66.2,12.2 66.1,11.2 67.2,11.2 			" />
				<path class="st2" d="M73,17.8c1.3,0,2.2-1.3,2.2-3c0-1.7-0.9-3-2.2-3s-2.2,1.3-2.2,3C70.8,16.5,71.6,17.8,73,17.8 M76.2,14.8
				c0,2.2-1.5,3.9-3.4,3.9c-2,0-3.2-1.7-3.2-3.7c0-2.2,1.4-3.9,3.3-3.9C75.2,11,76.2,12.6,76.2,14.8" />
				<polygon class="st2" points="84.7,17.7 84.7,18.5 84.2,18.5 80,13.8 79.5,13.1 79.5,17.7 79.7,18.5 78.6,18.5 78.6,12.2 
				78.5,11.2 79.2,11.2 83.3,15.8 83.7,16.5 83.7,12.2 83.6,11.2 84.7,11.2 			" />
				<path class="st2" d="M88.5,15.7h2.2l-0.9-2.6l-0.1-0.4l-0.1,0.4L88.5,15.7z M89.3,11.2L90,11l2.3,6.3l0.6,1.2h-1.2l-0.7-1.9h-2.7
				l-0.7,1.9h-1L89.3,11.2z" />
				<polygon class="st2"
					points="94.8,12.2 94.7,11.2 95.8,11.2 95.8,17.7 98.7,17.7 98.5,18.5 94.8,18.5 			" />
				<path class="st2" d="M105.5,12v5.7h1.4c1.3,0,2.2-1.3,2.2-2.8c0-1.6-0.9-2.9-2.2-2.9H105.5z M110.2,14.8c0,2.1-1.3,3.7-3.4,3.7
				h-2.3v-6.3l-0.1-1h2.8C108.7,11.2,110.2,12.3,110.2,14.8" />
				<polygon class="st2" points="112.6,12.2 112.5,11.2 116.3,11.2 116.3,12 113.6,12 113.6,14.3 116,14.3 115.7,15.2 113.6,15.2 
				113.6,17.7 116.4,17.7 116.2,18.5 112.6,18.5 			" />
				<polygon class="st2" points="48.7,28.6 48.8,29.5 47.3,29.5 47.3,26.4 43.8,26.4 43.8,28.6 43.9,29.5 42.3,29.5 42.3,23.2 
				42.2,22.1 43.8,22.1 43.8,25.2 47.3,25.2 47.3,23.2 47.1,22.1 48.7,22.1 			" />
				<path class="st2" d="M56,23.2l-0.2-1.1h1.4v4.5c0,1.9-1.2,3.1-3.2,3.1c-2.9,0-2.9-2.7-2.9-2.8v-3.6L51,22.1h1.6v4.7
				c0,1.1,0.7,1.8,1.7,1.8c1,0,1.7-0.8,1.7-1.9V23.2z" />
				<path class="st2" d="M61.5,25.8c0.7,0,1.3-0.6,1.3-1.4c0-0.8-0.6-1.3-1.3-1.3H61v2.7H61.5z M63.4,29.5l-1.9-2.6H61v1.7l0.1,1
				h-1.6v-6.3l-0.2-1.1h2.3c1.3,0,2.6,0.7,2.6,2.3c0,0.8-0.6,1.8-1.4,2.2l2.3,3H63.4z" />
				<polygon class="st2"
					points="66.6,23.2 66.5,22.1 68.1,22.1 68.1,28.4 70.9,28.4 70.6,29.5 66.6,29.5 			" />
				<polygon class="st2" points="73.8,28.6 73.9,29.5 72.3,29.5 72.3,23.2 72.2,22.1 73.8,22.1 			" />
				<polygon class="st2" points="82.6,28.6 82.6,29.5 81.7,29.5 78,25.3 77.5,24.6 77.5,28.6 77.6,29.5 76.2,29.5 76.2,23.2 
				76.1,22.1 77.2,22.1 80.9,26.4 81.3,27.1 81.3,23.2 81.1,22.1 82.6,22.1 			" />
				<path class="st2"
					d="M89.9,23.9c-0.6-0.6-1.3-0.9-2-0.9c-1.3,0-2.2,1.3-2.2,2.8c0,1.7,1.1,2.7,2.3,2.7c0.6,0,1.1-0.1,1.1-0.1
				v-1.6l-0.2-1h1.6l0,3.3c0,0-1.3,0.5-2.8,0.5c-1.8,0-3.6-1.2-3.6-3.7c0-2.4,1.6-4,3.7-4c1,0,1.8,0.3,2.6,0.9L89.9,23.9z" />
				<polygon class="st2" points="99,28.6 99.1,29.5 97.6,29.5 97.6,26.4 94.1,26.4 94.1,28.6 94.2,29.5 92.6,29.5 92.6,23.2 
				92.5,22.1 94.1,22.1 94.1,25.2 97.6,25.2 97.6,23.2 97.4,22.1 99,22.1 			" />
				<path class="st2" d="M102.7,26.6h1.8l-0.8-2.2l-0.1-0.4l-0.1,0.4L102.7,26.6z M103.2,22.2l0.9-0.2l2.3,6.2l0.6,1.4h-1.6l-0.6-1.7
				h-2.5l-0.7,1.7h-1.3L103.2,22.2z" />
				<polygon class="st2" points="110,25.6 109.6,24.9 109.6,28.6 109.7,29.5 108.3,29.5 108.3,23.2 108.2,22.1 109.3,22.1 
				112.4,26.5 115.3,22.1 116.2,22.1 116.2,28.6 116.4,29.5 114.8,29.5 114.8,24.9 114.5,25.6 112.3,28.8 			" />
			</g>
		</g>
	</g>
	<g id="Capa_2" class="st3">
		<g class="st4">
			<g>
				<path class="st5" d="M34.4,0.1h-4.9l0,0c-2.7,0-4.9,2.2-4.9,4.9v8.2h4.9c2.7,0,4.9-2.2,4.9-4.9V0.1z" />
				<path class="st5" d="M24.6,16.5h4.9h0c2.7,0,4.9,2.2,4.9,4.9v8.2h-4.9c-2.7,0-4.9-2.2-4.9-4.9V16.5z" />
				<path class="st5" d="M0,29.5h4.9h0c2.7,0,4.9-2.2,4.9-4.9v-8.2H4.9c-2.7,0-4.9,2.2-4.9,4.9V29.5z" />
				<path class="st5" d="M9.8,13.2H4.9h0C2.2,13.2,0,11,0,8.3V0.1h4.9c2.7,0,4.9,2.2,4.9,4.9V13.2z" />
				<rect x="13.3" y="0.1" class="st5" width="7.9" height="13.1" />
				<rect x="13.3" y="16.5" class="st5" width="7.9" height="13.1" />
				<path class="st5" d="M47.2,1.2l-0.1-1h1.1v4.4c0,1.8-1.2,3.1-3,3.1c-2.6,0-2.7-2.6-2.7-2.8V1.2l-0.1-1h1.1v4.6
				c0,1.2,0.8,2.1,1.9,2.1c1.1,0,1.9-1,1.9-2.1V1.2z" />
				<polygon class="st5" points="57.3,6.6 57.4,7.5 56.9,7.5 52.7,2.8 52.2,2.1 52.2,6.6 52.3,7.5 51.3,7.5 51.3,1.2 51.1,0.1 
				51.8,0.1 55.9,4.8 56.4,5.5 56.4,1.2 56.3,0.1 57.3,0.1 			" />
				<polygon class="st5" points="61.4,6.6 61.5,7.5 60.4,7.5 60.4,1.2 60.3,0.1 61.4,0.1 			" />
				<polygon class="st5"
					points="67,7.6 66.3,7.5 64.1,1.4 63.4,0.1 64.8,0.1 66.5,5.1 66.8,6 67.1,5.1 68.9,0.1 69.9,0.1 			" />
				<polygon class="st5" points="71.9,1.2 71.7,0.1 75.6,0.1 75.6,1 72.9,1 72.9,3.3 75.2,3.3 75,4.1 72.9,4.1 72.9,6.7 75.7,6.7 
				75.5,7.5 71.9,7.5 			" />
				<path class="st5" d="M79.9,3.9c0.8,0,1.6-0.7,1.6-1.6c0-0.9-0.7-1.4-1.6-1.4h-0.7v2.9H79.9z M82.1,7.5l-2-2.8c-0.1,0-0.3,0-0.9,0
				v1.9l0.1,0.8h-1.1V1.2l-0.1-1h2.1c1.2,0,2.4,0.7,2.4,2.2c0,0.9-0.5,1.7-1.4,2.1l2.3,3H82.1z" />
				<path class="st5" d="M85,5.8c0,0,0.8,1,1.9,1c0.6,0,1.2-0.4,1.2-1.2c0-1.5-3.2-1.5-3.2-3.5C84.9,1,85.8,0,87,0
				c0.9,0,1.5,0.3,1.8,0.5l-0.3,0.8c0-0.1-0.7-0.5-1.6-0.5c-0.5,0-1.1,0.4-1.1,1c0,1.6,3.1,1.5,3.1,3.7c0,1.3-0.9,2.2-2.2,2.2
				c-1.3,0-2-0.8-2-0.8C84.9,6.8,85,5.8,85,5.8" />
				<polygon class="st5" points="92.6,6.6 92.7,7.5 91.6,7.5 91.6,1.2 91.4,0.1 92.6,0.1 			" />
				<path class="st5" d="M96.8,0.9v5.7h1.4c1.3,0,2.2-1.3,2.2-2.8c0-1.6-0.9-2.9-2.2-2.9H96.8z M101.5,3.8c0,2.1-1.3,3.7-3.4,3.7
				h-2.3V1.2l-0.1-1h2.8C100,0.1,101.5,1.3,101.5,3.8" />
				<path class="st5" d="M104.7,4.7h2.2l-0.9-2.6l-0.1-0.4l-0.1,0.4L104.7,4.7z M105.5,0.1l0.7-0.1l2.3,6.3l0.6,1.2h-1.2l-0.7-1.9
				h-2.7l-0.7,1.9h-1L105.5,0.1z" />
				<path class="st5" d="M112.1,0.9v5.7h1.4c1.3,0,2.2-1.3,2.2-2.8c0-1.6-0.9-2.9-2.2-2.9H112.1z M116.8,3.8c0,2.1-1.3,3.7-3.4,3.7
				h-2.3V1.2l-0.1-1h2.8C115.2,0.1,116.8,1.3,116.8,3.8" />
				<polygon class="st5" points="48.5,17.7 48.5,18.5 48,18.5 43.8,13.8 43.4,13.1 43.4,17.7 43.5,18.5 42.4,18.5 42.4,12.2 
				42.3,11.2 43,11.2 47.1,15.8 47.6,16.5 47.6,12.2 47.4,11.2 48.5,11.2 			" />
				<path class="st5" d="M52.3,15.7h2.2l-0.9-2.6l-0.1-0.4l-0.1,0.4L52.3,15.7z M53.1,11.2l0.7-0.1l2.3,6.3l0.6,1.2h-1.2l-0.7-1.9H52
				l-0.7,1.9h-1L53.1,11.2z" />
				<path class="st5" d="M63.3,12.7c-0.5-0.5-1.1-0.8-1.9-0.8c-1.4,0-2.4,1.5-2.4,3c0,1.8,1.3,2.9,2.5,2.9c1,0,2.2-0.9,2.2-0.9
				l0.2,0.8c0,0-1.1,1-2.6,1c-1.7,0-3.4-1.3-3.4-3.7c0-2.3,1.6-4,3.5-4c0.9,0,1.7,0.3,2.3,0.9L63.3,12.7z" />
				<polygon class="st5" points="67.2,17.7 67.3,18.5 66.2,18.5 66.2,12.2 66.1,11.2 67.2,11.2 			" />
				<path class="st5" d="M73,17.8c1.3,0,2.2-1.3,2.2-3c0-1.7-0.9-3-2.2-3s-2.2,1.3-2.2,3C70.8,16.5,71.6,17.8,73,17.8 M76.2,14.8
				c0,2.2-1.5,3.9-3.4,3.9c-2,0-3.2-1.7-3.2-3.7c0-2.2,1.4-3.9,3.3-3.9C75.2,11,76.2,12.6,76.2,14.8" />
				<polygon class="st5" points="84.7,17.7 84.7,18.5 84.2,18.5 80,13.8 79.5,13.1 79.5,17.7 79.7,18.5 78.6,18.5 78.6,12.2 
				78.5,11.2 79.2,11.2 83.3,15.8 83.7,16.5 83.7,12.2 83.6,11.2 84.7,11.2 			" />
				<path class="st5" d="M88.5,15.7h2.2l-0.9-2.6l-0.1-0.4l-0.1,0.4L88.5,15.7z M89.3,11.2L90,11l2.3,6.3l0.6,1.2h-1.2l-0.7-1.9h-2.7
				l-0.7,1.9h-1L89.3,11.2z" />
				<polygon class="st5"
					points="94.8,12.2 94.7,11.2 95.8,11.2 95.8,17.7 98.7,17.7 98.5,18.5 94.8,18.5 			" />
				<path class="st5" d="M105.5,12v5.7h1.4c1.3,0,2.2-1.3,2.2-2.8c0-1.6-0.9-2.9-2.2-2.9H105.5z M110.2,14.8c0,2.1-1.3,3.7-3.4,3.7
				h-2.3v-6.3l-0.1-1h2.8C108.7,11.2,110.2,12.3,110.2,14.8" />
				<polygon class="st5" points="112.6,12.2 112.5,11.2 116.3,11.2 116.3,12 113.6,12 113.6,14.3 116,14.3 115.7,15.2 113.6,15.2 
				113.6,17.7 116.4,17.7 116.2,18.5 112.6,18.5 			" />
				<polygon class="st5" points="48.7,28.6 48.8,29.5 47.3,29.5 47.3,26.4 43.8,26.4 43.8,28.6 43.9,29.5 42.3,29.5 42.3,23.2 
				42.2,22.1 43.8,22.1 43.8,25.2 47.3,25.2 47.3,23.2 47.1,22.1 48.7,22.1 			" />
				<path class="st5" d="M56,23.2l-0.2-1.1h1.4v4.5c0,1.9-1.2,3.1-3.2,3.1c-2.9,0-2.9-2.7-2.9-2.8v-3.6L51,22.1h1.6v4.7
				c0,1.1,0.7,1.8,1.7,1.8c1,0,1.7-0.8,1.7-1.9V23.2z" />
				<path class="st5" d="M61.5,25.8c0.7,0,1.3-0.6,1.3-1.4c0-0.8-0.6-1.3-1.3-1.3H61v2.7H61.5z M63.4,29.5l-1.9-2.6H61v1.7l0.1,1
				h-1.6v-6.3l-0.2-1.1h2.3c1.3,0,2.6,0.7,2.6,2.3c0,0.8-0.6,1.8-1.4,2.2l2.3,3H63.4z" />
				<polygon class="st5"
					points="66.6,23.2 66.5,22.1 68.1,22.1 68.1,28.4 70.9,28.4 70.6,29.5 66.6,29.5 			" />
				<polygon class="st5" points="73.8,28.6 73.9,29.5 72.3,29.5 72.3,23.2 72.2,22.1 73.8,22.1 			" />
				<polygon class="st5" points="82.6,28.6 82.6,29.5 81.7,29.5 78,25.3 77.5,24.6 77.5,28.6 77.6,29.5 76.2,29.5 76.2,23.2 
				76.1,22.1 77.2,22.1 80.9,26.4 81.3,27.1 81.3,23.2 81.1,22.1 82.6,22.1 			" />
				<path class="st5"
					d="M89.9,23.9c-0.6-0.6-1.3-0.9-2-0.9c-1.3,0-2.2,1.3-2.2,2.8c0,1.7,1.1,2.7,2.3,2.7c0.6,0,1.1-0.1,1.1-0.1
				v-1.6l-0.2-1h1.6l0,3.3c0,0-1.3,0.5-2.8,0.5c-1.8,0-3.6-1.2-3.6-3.7c0-2.4,1.6-4,3.7-4c1,0,1.8,0.3,2.6,0.9L89.9,23.9z" />
				<polygon class="st5" points="99,28.6 99.1,29.5 97.6,29.5 97.6,26.4 94.1,26.4 94.1,28.6 94.2,29.5 92.6,29.5 92.6,23.2 
				92.5,22.1 94.1,22.1 94.1,25.2 97.6,25.2 97.6,23.2 97.4,22.1 99,22.1 			" />
				<path class="st5" d="M102.7,26.6h1.8l-0.8-2.2l-0.1-0.4l-0.1,0.4L102.7,26.6z M103.2,22.2l0.9-0.2l2.3,6.2l0.6,1.4h-1.6l-0.6-1.7
				h-2.5l-0.7,1.7h-1.3L103.2,22.2z" />
				<polygon class="st5" points="110,25.6 109.6,24.9 109.6,28.6 109.7,29.5 108.3,29.5 108.3,23.2 108.2,22.1 109.3,22.1 
				112.4,26.5 115.3,22.1 116.2,22.1 116.2,28.6 116.4,29.5 114.8,29.5 114.8,24.9 114.5,25.6 112.3,28.8 			" />
			</g>
		</g>
	</g>
</svg>