<?xml version="1.0" encoding="utf-8"?>
<!-- Generator: Adobe Illustrator 21.0.0, SVG Export Plug-In . SVG Version: 6.00 Build 0)  -->
<svg version="1.1" id="Layer_1" xmlns="http://www.w3.org/2000/svg" xmlns:xlink="http://www.w3.org/1999/xlink" x="0px" y="0px"
	 viewBox="0 0 51.1 56.4" style="enable-background:new 0 0 51.1 56.4;" xml:space="preserve">
<style type="text/css">
	.st0{fill:#57A52D;}
	.st1{fill:#00A3C9;}
	.st2{fill:#575756;}
</style>
<g>
	<path class="st0" d="M50.3,0h-7.2h0c-4,0-7.2,3.2-7.2,7.2v11.9h7.2c4,0,7.2-3.2,7.2-7.2V0z"/>
	<path class="st0" d="M36,23.9h7.2h0c4,0,7.2,3.2,7.2,7.2V43h-7.2c-4,0-7.2-3.2-7.2-7.2V23.9z"/>
	<path class="st0" d="M0,43h7.2h0c4,0,7.2-3.2,7.2-7.2V23.9H7.2c-4,0-7.2,3.2-7.2,7.2V43z"/>
	<path class="st0" d="M14.3,19.1H7.2h0c-4,0-7.2-3.2-7.2-7.2V0h7.2c4,0,7.2,3.2,7.2,7.2V19.1z"/>
	<rect x="19.4" y="0" class="st1" width="11.5" height="19.1"/>
	<rect x="19.4" y="23.9" class="st1" width="11.5" height="19.1"/>
	<path class="st2" d="M6,49.5l-0.2-1.2h1.6V53c0,2-1.4,3.4-3.7,3.4c-3.2,0-3.3-2.9-3.3-3.1v-3.9l-0.2-1.2h1.8v5c0,1.2,0.8,2,1.9,2
		c1.1,0,2-0.9,2-2.1V49.5z"/>
	<polygon class="st2" points="16.6,55.2 16.7,56.3 15.7,56.3 11.4,51.7 10.9,50.9 10.9,55.2 11,56.3 9.4,56.3 9.4,49.5 9.3,48.2 
		10.5,48.2 14.7,52.9 15.2,53.6 15.2,49.5 15,48.2 16.6,48.2 	"/>
	<path class="st2" d="M20.3,53.2h2l-0.9-2.3l-0.1-0.5l-0.1,0.5L20.3,53.2z M20.9,48.3l1.1-0.3l2.6,6.7l0.7,1.5h-1.8l-0.7-1.9h-2.8
		l-0.7,1.9h-1.5L20.9,48.3z"/>
	<polygon class="st2" points="33.5,55.2 33.6,56.3 31.8,56.3 31.8,52.9 27.9,52.9 27.9,55.2 28,56.3 26.2,56.3 26.2,49.5 26.1,48.2 
		27.9,48.2 27.9,51.6 31.8,51.6 31.8,49.5 31.7,48.2 33.5,48.2 	"/>
	<path class="st2" d="M41.1,49.5l-0.2-1.2h1.6V53c0,2-1.4,3.4-3.7,3.4c-3.3,0-3.3-2.9-3.3-3.1v-3.9l-0.2-1.2h1.8v5
		c0,1.2,0.8,2,1.9,2c1.1,0,2-0.9,2-2.1V49.5z"/>
	<path class="st2" d="M46.8,52.3c0.8,0,1.5-0.7,1.5-1.5c0-0.9-0.7-1.4-1.5-1.4h-0.6v2.9H46.8z M49,56.3l-2.1-2.8h-0.6v1.8l0.1,1
		h-1.8v-6.8l-0.2-1.2H47c1.5,0,3,0.8,3,2.5c0,0.9-0.6,1.9-1.6,2.3l2.6,3.2H49z"/>
</g>
</svg>
